<?xml version="1.0" encoding="UTF-8" standalone="no"?>
<svg
   xmlns:dc="http://purl.org/dc/elements/1.1/"
   xmlns:cc="http://creativecommons.org/ns#"
   xmlns:rdf="http://www.w3.org/1999/02/22-rdf-syntax-ns#"
   xmlns:svg="http://www.w3.org/2000/svg"
   xmlns="http://www.w3.org/2000/svg"
   id="svg8"
   version="1.1"
   viewBox="0 0 25.874612 25.323894"
   height="25.323895mm"
   width="25.874611mm">
  <defs
     id="defs2" />
  <metadata
     id="metadata5">
    <rdf:RDF>
      <cc:Work
         rdf:about="">
        <dc:format>image/svg+xml</dc:format>
        <dc:type
           rdf:resource="http://purl.org/dc/dcmitype/StillImage" />
        <dc:title></dc:title>
      </cc:Work>
    </rdf:RDF>
  </metadata>
  <g
     transform="translate(-160.21987,-242.98301)"
     id="layer1">
    <path
       id="path57"
       d="m 178.10042,268.18094 c -0.10394,-0.10394 -0.18991,-0.49656 -0.19104,-0.87248 -0.003,-0.92561 -1.19967,-1.53665 -1.85257,-0.94579 -0.5828,0.52743 -1.14523,0.49747 -1.67623,-0.0893 -0.54644,-0.60381 -0.55434,-1.0656 -0.0282,-1.64702 0.67909,-0.75038 0.24399,-1.79054 -0.83354,-1.99268 -0.83418,-0.1565 -0.8991,-0.24093 -0.8991,-1.16925 0,-1.02751 0.42418,-1.44699 1.17274,-1.15974 0.23771,0.0912 0.52853,-0.14374 0.78014,-0.63032 0.35917,-0.69456 0.35858,-0.83654 -0.006,-1.35663 -0.49458,-0.7061 -0.34413,-1.17472 0.56929,-1.77321 0.66395,-0.43504 0.71553,-0.43123 1.23823,0.0915 0.45439,0.45439 0.67233,0.50118 1.30578,0.28036 0.60645,-0.21141 0.76036,-0.42357 0.76036,-1.04814 0,-0.75765 0.0365,-0.78044 1.12448,-0.70172 1.03874,0.0752 1.1305,0.14287 1.20342,0.88807 0.0961,0.98206 1.3904,1.66594 1.92769,1.01856 0.42456,-0.51157 1.13473,-0.46279 1.65653,0.11379 0.54498,0.6022 0.55443,1.06548 0.0335,1.64112 -0.60821,0.67206 -0.10771,1.78073 0.85368,1.89102 0.667,0.0765 0.74949,0.1978 0.82269,1.20952 0.0806,1.1146 0.0736,1.12448 -0.80189,1.12448 -0.73587,0 -0.93259,0.13075 -1.17902,0.78361 -0.23477,0.62197 -0.21944,0.84696 0.0743,1.09073 0.51157,0.42456 0.46279,1.13474 -0.11379,1.65653 -0.60512,0.54763 -1.53479,0.56605 -1.83125,0.0363 -0.37741,-0.67439 -1.86585,-0.005 -1.96877,0.88505 -0.0693,0.59955 -0.2241,0.71914 -1.01725,0.7859 -0.51452,0.0433 -1.02054,-0.006 -1.12448,-0.11025 z m 3.14477,-4.70453 c 1.32045,-1.32045 1.10368,-3.20557 -0.4617,-4.01505 -2.99291,-1.5477 -5.65107,2.09681 -3.09688,4.24602 1.17437,0.98816 2.42032,0.90729 3.55858,-0.23097 z m -15.83531,-3.64127 c -0.77096,-0.28158 -0.9012,-0.78894 -0.48413,-1.88591 0.20654,-0.54324 0.10941,-0.76682 -0.64027,-1.47394 -0.76867,-0.72503 -0.97487,-0.79892 -1.58361,-0.56747 -1.2001,0.45627 -1.65113,0.32592 -1.96246,-0.56715 -0.44016,-1.26264 -0.36533,-1.52087 0.56993,-1.96687 0.81057,-0.38653 0.85487,-0.47969 0.76508,-1.6087 -0.0856,-1.07615 -0.18686,-1.23665 -0.99269,-1.57335 -0.9888,-0.41315 -1.04347,-0.58769 -0.58296,-1.86123 0.38175,-1.05569 0.72504,-1.21348 1.7766,-0.81656 0.73539,0.27758 0.87853,0.23564 1.6199,-0.47463 0.56288,-0.53928 0.7691,-0.94328 0.66989,-1.31238 -0.0788,-0.29329 -0.21532,-0.79212 -0.30331,-1.10852 -0.12615,-0.45364 0.0105,-0.66343 0.64625,-0.99219 1.213,-0.62726 1.78062,-0.52802 2.15543,0.37683 0.3016,0.72813 0.4352,0.79375 1.61605,0.79375 1.22107,0 1.30716,-0.0476 1.67419,-0.92604 0.43332,-1.03709 0.71409,-1.10527 2.12462,-0.51591 0.69682,0.29114 0.93614,0.52855 0.82494,0.81833 -0.52517,1.36858 -0.47559,1.68135 0.3956,2.49515 0.75051,0.70109 0.95847,0.77471 1.4962,0.5297 1.06757,-0.48641 1.53618,-0.33445 2.00585,0.65046 0.6122,1.28378 0.57749,1.41824 -0.48016,1.86016 -0.87996,0.36767 -0.92604,0.45153 -0.92604,1.68526 0,1.23383 0.0403,1.30721 0.81162,1.47661 0.4464,0.0981 0.87596,0.3459 0.95458,0.55078 0.18366,0.4786 -0.0551,1.42438 -0.52003,2.06004 -0.32264,0.44111 -0.47397,0.46189 -1.32313,0.18164 -0.91991,-0.3036 -0.99122,-0.28086 -1.75718,0.56026 -0.47984,0.52691 -0.73331,1.03503 -0.63532,1.27356 0.0897,0.21828 0.21671,0.70698 0.2823,1.086 0.10425,0.6024 -0.0192,0.74451 -0.9809,1.12931 -1.26872,0.50764 -1.40805,0.46096 -1.85668,-0.62213 -0.30342,-0.73253 -0.43743,-0.79943 -1.60143,-0.79943 -1.21716,0 -1.28308,0.0387 -1.57592,0.92604 -0.32963,0.99881 -0.78686,1.12837 -2.18281,0.61853 z m 4.86294,-4.5954 c 0.38267,-0.091 1.08693,-0.56913 1.56503,-1.06241 1.13836,-1.17448 1.37746,-3.21183 0.53449,-4.55428 -1.92153,-3.06008 -6.66862,-2.29537 -7.32047,1.17926 -0.22326,1.1901 0.24139,2.7264 1.05608,3.49177 0.72671,0.68271 2.47683,1.37606 3.07224,1.21714 0.21828,-0.0583 0.70997,-0.18043 1.09263,-0.27148 z"
       style="fill:#686868;stroke-width:0.26458335" />
  </g>
</svg>
