<?xml version="1.0" encoding="UTF-8" standalone="no"?>
<svg
   xmlns:dc="http://purl.org/dc/elements/1.1/"
   xmlns:cc="http://creativecommons.org/ns#"
   xmlns:rdf="http://www.w3.org/1999/02/22-rdf-syntax-ns#"
   xmlns:svg="http://www.w3.org/2000/svg"
   xmlns="http://www.w3.org/2000/svg"
   id="svg8"
   version="1.1"
   viewBox="0 0 25.836167 19.558435"
   height="19.558435mm"
   width="25.836166mm">
  <defs
     id="defs2" />
  <metadata
     id="metadata5">
    <rdf:RDF>
      <cc:Work
         rdf:about="">
        <dc:format>image/svg+xml</dc:format>
        <dc:type
           rdf:resource="http://purl.org/dc/dcmitype/StillImage" />
        <dc:title></dc:title>
      </cc:Work>
    </rdf:RDF>
  </metadata>
  <g
     transform="translate(-155.67153,-242.98111)"
     id="layer1">
    <path
       id="path44"
       d="m 155.918,262.18983 c -0.21356,-0.25733 -0.28063,-2.62139 -0.23083,-8.13594 l 0.0702,-7.77322 0.7139,-0.0824 0.7139,-0.0824 0.0798,6.25731 0.0798,6.2573 0.69391,0.59644 c 0.53509,0.45992 1.16303,0.63609 2.74345,0.76969 1.33765,0.11307 2.58868,0.4152 3.60173,0.86983 2.66269,1.19494 2.52426,1.31929 -1.68297,1.51176 -5.48685,0.251 -6.4403,0.22452 -6.78298,-0.18838 z m 17.30186,0.11304 c -2.59128,-0.14416 -2.63219,-0.15646 -1.98437,-0.59651 1.39211,-0.94562 3.2,-1.54393 5.16789,-1.71027 1.57427,-0.13308 2.20251,-0.30962 2.73715,-0.76916 l 0.69392,-0.59644 0.0798,-6.2573 0.0798,-6.25731 0.7139,0.0824 0.71391,0.0824 0.0702,7.77322 c 0.0498,5.51455 -0.0173,7.87861 -0.23083,8.13594 -0.31774,0.38284 -2.61203,0.41509 -8.04145,0.11304 z m -6.47663,-1.63486 c -1.24427,-1.03898 -3.46339,-1.82976 -5.64899,-2.01299 -1.02081,-0.0856 -1.971,-0.31502 -2.18314,-0.52715 -0.53818,-0.53819 -0.55444,-14.01504 -0.0178,-14.74895 0.30993,-0.42386 0.59506,-0.4672 2.1304,-0.32383 2.20105,0.20554 4.5369,1.22333 5.81758,2.53486 l 0.96303,0.98623 -0.0704,7.43018 -0.0703,7.43019 z m 2.64017,-6.66247 v -7.48518 l 0.99219,-0.96591 c 1.36004,-1.32403 3.60462,-2.29622 5.76784,-2.49822 1.54785,-0.14454 1.83224,-0.10171 2.14257,0.32269 0.27929,0.38196 0.35693,2.00243 0.35377,7.38409 -0.002,3.79211 -0.112,7.06534 -0.24395,7.27384 -0.14825,0.23429 -0.96395,0.45646 -2.13545,0.58163 -2.50378,0.26753 -4.26239,0.87649 -5.69978,1.97367 l -1.17719,0.89857 z"
       style="fill:#000000;stroke-width:0.26458332" />
  </g>
</svg>
