<?xml version="1.0" encoding="UTF-8" standalone="no"?>
<svg
   xmlns:dc="http://purl.org/dc/elements/1.1/"
   xmlns:cc="http://creativecommons.org/ns#"
   xmlns:rdf="http://www.w3.org/1999/02/22-rdf-syntax-ns#"
   xmlns:svg="http://www.w3.org/2000/svg"
   xmlns="http://www.w3.org/2000/svg"
   id="svg8"
   version="1.1"
   viewBox="0 0 23.769303 26.697647"
   height="26.697647mm"
   width="23.769302mm">
  <defs
     id="defs2" />
  <metadata
     id="metadata5">
    <rdf:RDF>
      <cc:Work
         rdf:about="">
        <dc:format>image/svg+xml</dc:format>
        <dc:type
           rdf:resource="http://purl.org/dc/dcmitype/StillImage" />
        <dc:title></dc:title>
      </cc:Work>
    </rdf:RDF>
  </metadata>
  <g
     transform="translate(-159.91618,-241.79872)"
     id="layer1">
    <path
       id="path70"
       d="m 161.3977,268.0925 c -1.46284,-0.79373 -1.92747,-2.75845 -1.00868,-4.26529 0.67503,-1.10707 1.38709,-1.45905 2.77859,-1.37348 1.106,0.068 1.2219,-0.005 3.6627,-2.29622 l 2.52057,-2.36646 -0.39535,-0.75356 c -0.51071,-0.97343 -0.50587,-2.8102 0.01,-3.80786 0.49959,-0.96609 1.59258,-1.71025 2.80343,-1.90871 0.87773,-0.14385 0.92878,-0.21502 1.22881,-1.71276 l 0.31304,-1.56268 -0.87556,-0.82576 c -1.59289,-1.50228 -1.40734,-3.92801 0.38127,-4.98456 2.27711,-1.34513 5.13846,0.61646 4.65539,3.19147 -0.19479,1.03831 -1.48971,2.44255 -2.25239,2.44255 -0.497,0 -0.63726,0.36353 -0.9337,2.42006 -0.16909,1.17303 -0.13236,1.27055 0.80083,2.12575 0.78524,0.71962 1.00537,1.13865 1.1166,2.12552 0.0762,0.67606 0.0118,1.5928 -0.14312,2.0372 -0.26763,0.76772 -0.21353,0.87301 1.08481,2.11154 1.32053,1.2597 1.39075,1.29098 2.08829,0.93027 2.12917,-1.10104 4.45225,0.43682 4.45225,2.94735 0,1.42 -1.3967,2.76481 -2.87151,2.76481 -2.15996,0 -3.21391,-1.06371 -3.21391,-3.24369 0,-1.06886 -0.10623,-1.24502 -1.45096,-2.40597 -1.27053,-1.0969 -1.52099,-1.21519 -2.01417,-0.95126 -0.31196,0.16696 -1.29671,0.26065 -2.20749,0.21002 l -1.64429,-0.0914 -2.44462,2.29952 c -2.1495,2.02191 -2.41054,2.36317 -2.16237,2.82687 0.15523,0.29005 0.28224,1.02335 0.28224,1.62955 0,0.90069 -0.16446,1.26665 -0.89959,2.00177 -0.71835,0.71835 -1.1048,0.89745 -1.91823,0.88899 -0.56025,-0.006 -1.34457,-0.18744 -1.74292,-0.40358 z"
       style="fill:#686868;stroke-width:0.26458332" />
  </g>
</svg>
