<?xml version="1.0" encoding="UTF-8" standalone="no"?>
<svg
   xmlns:dc="http://purl.org/dc/elements/1.1/"
   xmlns:cc="http://creativecommons.org/ns#"
   xmlns:rdf="http://www.w3.org/1999/02/22-rdf-syntax-ns#"
   xmlns:svg="http://www.w3.org/2000/svg"
   xmlns="http://www.w3.org/2000/svg"
   id="svg8"
   version="1.1"
   viewBox="0 0 25.929171 19.309406"
   height="19.309406mm"
   width="25.929171mm">
  <defs
     id="defs2" />
  <metadata
     id="metadata5">
    <rdf:RDF>
      <cc:Work
         rdf:about="">
        <dc:format>image/svg+xml</dc:format>
        <dc:type
           rdf:resource="http://purl.org/dc/dcmitype/StillImage" />
        <dc:title></dc:title>
      </cc:Work>
    </rdf:RDF>
  </metadata>
  <g
     transform="translate(-155.56363,-242.93932)"
     id="layer1">
    <path
       id="path31"
       d="m 155.56363,256.6012 c 0,-6.37148 0.0457,-6.5233 1.96259,-6.5233 h 0.99487 l -0.68498,-0.81405 c -1.77292,-2.107 0.3351,-5.06733 2.72745,-3.8302 1.51668,0.7843 1.80943,2.47023 0.6651,3.8302 l -0.68498,0.81405 h 1.06685 c 1.80365,0 1.8906,0.30691 1.8906,6.67345 v 5.49738 h -3.96875 -3.96875 z m 8.99584,-0.72282 v -6.37035 l 0.77339,-0.7734 c 0.42537,-0.42537 1.02069,-0.7734 1.32292,-0.7734 0.65695,0 0.70794,-0.3329 0.12508,-0.81662 -0.7073,-0.58701 -0.9442,-1.55044 -0.62159,-2.52796 0.81242,-2.46164 4.24281,-2.13077 4.6531,0.4488 0.1213,0.76264 0.0166,1.09879 -0.55329,1.77604 l -0.70291,0.83536 0.92065,0.38468 c 1.78417,0.74547 1.87791,1.12693 1.97159,8.02315 l 0.0837,6.16405 h -3.98634 -3.98634 z m 8.99583,0.72282 c 0,-6.37148 0.0457,-6.5233 1.96258,-6.5233 h 0.99488 l -0.68498,-0.81405 c -1.44544,-1.71781 -0.46534,-4.06872 1.69627,-4.06872 2.16161,0 3.14171,2.35091 1.69627,4.06872 l -0.68498,0.81405 h 1.06685 c 1.80366,0 1.89061,0.30691 1.89061,6.67345 v 5.49738 h -3.96875 -3.96875 z"
       style="fill:#686868;stroke-width:0.26458332" />
  </g>
</svg>
